<?xml version="1.0" encoding="UTF-8"?>
<svg id="Camada_1" data-name="Camada 1" xmlns="http://www.w3.org/2000/svg" viewBox="0 0 775.07 276.46">
  <defs>
    <style>
      .cls-1 {
        font-family: TTBluescreensTrial-Rg, 'TT Bluescreens Trial';
        font-size: 91px;
      }

      .cls-1, .cls-2 {
        fill: #e62531;
      }

      .cls-3 {
        fill: #1d1d1b;
      }
    </style>
  </defs>
  <text class="cls-1" transform="translate(543.07 245.26)"><tspan x="0" y="0">MÄRKTE</tspan></text>
  <g>
    <g>
      <path class="cls-3" d="M69.2,1.31v153.3H27.2V1.31h42ZM133.55,42.64l-20.55,40.77,30.55,71.2h-46.49l-26.28-73.11,19.09-38.86h43.69Z"/>
      <path class="cls-3" d="M251.03,154.61h-42v-63.23c0-6.44-2.66-9.66-7.97-9.66s-7.86,3.22-7.86,9.66v63.23h-42v-62.44c0-14.6,4.83-26.9,14.49-36.89s21.49-14.99,35.49-14.99c16.02,0,28.86,5.8,38.52,17.41,7.56,9.06,11.34,21.67,11.34,37.85v59.07Z"/>
      <path class="cls-3" d="M266.51,44.21h42v63.23c0,6.36,2.66,9.55,7.97,9.55s7.86-3.18,7.86-9.55v-63.23h42v62.44c0,14.53-4.83,26.78-14.49,36.78s-21.49,14.99-35.49,14.99c-15.95,0-28.79-5.8-38.52-17.41-7.56-9.06-11.34-21.64-11.34-37.73v-59.07Z"/>
      <path class="cls-3" d="M432.83,1.31v153.3h-42V1.31h42Z"/>
      <path class="cls-3" d="M499.43,1.31v153.3h-42V1.31h42Z"/>
      <path class="cls-3" d="M634.08,105.42h-63.68c-.97-3.22-1.46-6.18-1.46-8.87,0-3.74.67-7.41,2.02-11.01h21.34c-1.5-8.31-6.18-12.47-14.04-12.47-5.24,0-9.51,2.23-12.8,6.68-3.3,4.46-4.94,10.16-4.94,17.13s1.59,13.14,4.77,17.63c3.18,4.49,7.36,6.74,12.52,6.74,4.19,0,8.23-2.1,12.13-6.29l23.92,28.75c-11.16,8.76-23.55,13.14-37.17,13.14-16.62,0-30.59-5.58-41.89-16.73-11.31-11.15-16.96-24.97-16.96-41.44s5.71-30.25,17.13-41.55c11.42-11.3,25.44-16.96,42.06-16.96s29.89,5.52,40.94,16.56c11.04,11.04,16.56,24.65,16.56,40.82,0,1.65-.15,4.27-.45,7.86Z"/>
      <path class="cls-3" d="M712.92,41.52v44.92c-2.92-1.65-5.58-2.47-7.97-2.47-7.64,0-11.46,5.84-11.46,17.52v53.12h-42v-61.21c0-16.17,4.42-29.07,13.25-38.69,8.83-9.62,20.63-14.43,35.38-14.43,3.29,0,7.56.41,12.8,1.24Z"/>
      <path class="cls-2" d="M288.23,0c6.14,0,11.27,1.85,15.39,5.56,4.12,3.71,6.18,8.37,6.18,13.98s-2.17,10.39-6.51,14.54c-4.34,4.16-9.43,6.23-15.27,6.23s-10.39-2.08-14.54-6.23-6.23-9-6.23-14.54,2.08-9.9,6.23-13.76c4.16-3.85,9.08-5.78,14.77-5.78ZM344.38.22c6.14,0,11.27,1.85,15.39,5.56,4.12,3.71,6.18,8.37,6.18,13.98s-2.17,10.39-6.51,14.54c-4.34,4.16-9.43,6.23-15.27,6.23s-10.39-2.08-14.54-6.23-6.23-9-6.23-14.54,2.08-9.9,6.23-13.76c4.16-3.85,9.08-5.78,14.77-5.78Z"/>
      <path class="cls-2" d="M42.23,161c6.14,0,11.27,1.85,15.39,5.56,4.12,3.71,6.18,8.37,6.18,13.98s-2.17,10.39-6.51,14.54c-4.34,4.16-9.43,6.23-15.27,6.23s-10.39-2.08-14.54-6.23-6.23-9-6.23-14.54,2.08-9.9,6.23-13.76c4.16-3.85,9.08-5.78,14.77-5.78ZM123.38,161.22c6.14,0,11.27,1.85,15.39,5.56,4.12,3.71,6.18,8.37,6.18,13.98s-2.17,10.39-6.51,14.54c-4.34,4.16-9.43,6.23-15.27,6.23s-10.39-2.08-14.54-6.23-6.23-9-6.23-14.54,2.08-9.9,6.23-13.76c4.16-3.85,9.08-5.78,14.77-5.78Z"/>
    </g>
    <rect class="cls-3" x="0" y="1.38" width="28.13" height="42.01"/>
  </g>
</svg>